<svg width="1920" height="1080" viewBox="0 0 1920 1080" fill="none" xmlns="http://www.w3.org/2000/svg">
<g filter="url(#filter0_f)">
<path d="M958.233 641.027L956.577 632.47L969.716 626.19L959.057 623.634C961.354 620.667 965.412 613.622 963.271 609.181C961.131 604.74 975.065 600.7 982.3 599.234C985.374 606.148 990.995 621.781 988.888 629.007C986.781 636.234 967.573 640.032 958.233 641.027Z" fill="white" fill-opacity="0.3"/>
</g>
<g filter="url(#filter1_f)">
<path d="M1563.56 164.187L1568.98 154.101L1590.88 150.341L1579.81 144.75C1585.27 141.981 1596.5 135.053 1597.72 129.493C1598.93 123.934 1619.86 122.905 1630.18 123.085C1627.97 131.674 1621.31 150.759 1612.36 158.387C1603.41 166.015 1576.1 165.432 1563.56 164.187Z" fill="white" fill-opacity="0.3"/>
</g>
<g filter="url(#filter2_f)">
<path d="M1842.64 62.824L1843.28 69.6811L1835.5 81.692L1841.54 78.7982C1840.11 82.5718 1837.53 90.8528 1838.6 93.788C1839.67 96.7233 1831.52 107.116 1827.3 111.945C1825.78 107.25 1823.11 95.985 1824.58 88.4901C1826.05 80.9952 1837.23 68.2565 1842.64 62.824Z" fill="white" fill-opacity="0.3"/>
</g>
<g filter="url(#filter3_f)">
<path d="M1782.74 312.208L1783.28 324.268L1803.29 331.494L1789.55 336.246C1793.66 340.103 1801.51 349.418 1800.04 355.822C1798.56 362.225 1818.93 366.255 1829.3 367.469C1831.24 357.53 1833.82 335.204 1828.58 325.416C1823.34 315.628 1795.84 312.532 1782.74 312.208Z" fill="white" fill-opacity="0.1"/>
</g>
<g filter="url(#filter4_f)">
<path d="M188.48 946.111L190.527 956.379L177.429 972.035L188.378 969.351C186.168 974.535 182.339 986.055 184.704 990.658C187.07 995.261 173.068 1008.44 165.772 1014.45C162.353 1007.14 155.973 989.847 157.81 979.193C159.647 968.539 179.022 952.7 188.48 946.111Z" fill="white" fill-opacity="0.1"/>
</g>
<g filter="url(#filter5_f)">
<path d="M1533.27 340.18L1528.2 347.271L1514.6 342.059L1520.08 351.551C1516.35 351.927 1508.45 353.831 1506.7 358.44C1504.95 363.05 1492.43 355.721 1486.38 351.48C1489.29 344.492 1496.76 329.655 1503.45 326.211C1510.15 322.766 1526.12 334.088 1533.27 340.18Z" fill="white" fill-opacity="0.3"/>
</g>
<g filter="url(#filter6_f)">
<path d="M435.233 361.061L413.386 330.665L457.129 331.918L408.28 306.159C412.659 300.33 417.249 284.204 400.576 266.327C383.904 248.451 434.867 258.25 462.433 265.383C487.312 292.789 538.032 352.578 541.883 372.494C545.735 392.409 472.388 373.17 435.233 361.061Z" fill="white" fill-opacity="0.2"/>
</g>
<g filter="url(#filter7_f)">
<path d="M976.251 789.28L996.526 788.462L997.543 818.868L1013.41 796.669C1017.67 802.586 1029.13 813.624 1040.89 810.431C1052.65 807.239 1048.01 838.639 1044.22 854.739C1026.16 859.149 986.618 866.251 972.881 859.37C959.144 852.488 969.404 809.776 976.251 789.28Z" fill="white" fill-opacity="0.2"/>
</g>
<defs>
<filter id="filter0_f" x="946.577" y="589.234" width="52.7725" height="61.7928" filterUnits="userSpaceOnUse" color-interpolation-filters="sRGB">
<feFlood flood-opacity="0" result="BackgroundImageFix"/>
<feBlend mode="normal" in="SourceGraphic" in2="BackgroundImageFix" result="shape"/>
<feGaussianBlur stdDeviation="5" result="effect1_foregroundBlur"/>
</filter>
<filter id="filter1_f" x="1553.56" y="113.066" width="86.6148" height="61.8657" filterUnits="userSpaceOnUse" color-interpolation-filters="sRGB">
<feFlood flood-opacity="0" result="BackgroundImageFix"/>
<feBlend mode="normal" in="SourceGraphic" in2="BackgroundImageFix" result="shape"/>
<feGaussianBlur stdDeviation="5" result="effect1_foregroundBlur"/>
</filter>
<filter id="filter2_f" x="1814.16" y="52.824" width="39.125" height="69.1213" filterUnits="userSpaceOnUse" color-interpolation-filters="sRGB">
<feFlood flood-opacity="0" result="BackgroundImageFix"/>
<feBlend mode="normal" in="SourceGraphic" in2="BackgroundImageFix" result="shape"/>
<feGaussianBlur stdDeviation="5" result="effect1_foregroundBlur"/>
</filter>
<filter id="filter3_f" x="1752.74" y="282.208" width="108.934" height="115.262" filterUnits="userSpaceOnUse" color-interpolation-filters="sRGB">
<feFlood flood-opacity="0" result="BackgroundImageFix"/>
<feBlend mode="normal" in="SourceGraphic" in2="BackgroundImageFix" result="shape"/>
<feGaussianBlur stdDeviation="15" result="effect1_foregroundBlur"/>
</filter>
<filter id="filter4_f" x="127.484" y="916.111" width="93.0428" height="128.336" filterUnits="userSpaceOnUse" color-interpolation-filters="sRGB">
<feFlood flood-opacity="0" result="BackgroundImageFix"/>
<feBlend mode="normal" in="SourceGraphic" in2="BackgroundImageFix" result="shape"/>
<feGaussianBlur stdDeviation="15" result="effect1_foregroundBlur"/>
</filter>
<filter id="filter5_f" x="1476.38" y="315.572" width="66.8845" height="54.3379" filterUnits="userSpaceOnUse" color-interpolation-filters="sRGB">
<feFlood flood-opacity="0" result="BackgroundImageFix"/>
<feBlend mode="normal" in="SourceGraphic" in2="BackgroundImageFix" result="shape"/>
<feGaussianBlur stdDeviation="5" result="effect1_foregroundBlur"/>
</filter>
<filter id="filter6_f" x="367.298" y="226.201" width="204.731" height="184.905" filterUnits="userSpaceOnUse" color-interpolation-filters="sRGB">
<feFlood flood-opacity="0" result="BackgroundImageFix"/>
<feBlend mode="normal" in="SourceGraphic" in2="BackgroundImageFix" result="shape"/>
<feGaussianBlur stdDeviation="15" result="effect1_foregroundBlur"/>
</filter>
<filter id="filter7_f" x="936.096" y="758.462" width="142.298" height="133.776" filterUnits="userSpaceOnUse" color-interpolation-filters="sRGB">
<feFlood flood-opacity="0" result="BackgroundImageFix"/>
<feBlend mode="normal" in="SourceGraphic" in2="BackgroundImageFix" result="shape"/>
<feGaussianBlur stdDeviation="15" result="effect1_foregroundBlur"/>
</filter>
</defs>
</svg>
