<svg width="60" height="59" viewBox="0 0 60 59" fill="none" xmlns="http://www.w3.org/2000/svg">
<path fill-rule="evenodd" clip-rule="evenodd" d="M30 0C13.425 0 0 13.425 0 30C0 43.275 8.5875 54.4875 20.5125 58.4625C22.0125 58.725 22.575 57.825 22.575 57.0375C22.575 56.325 22.5375 53.9625 22.5375 51.45C15 52.8375 13.05 49.6125 12.45 47.925C12.1125 47.0625 10.65 44.4 9.375 43.6875C8.325 43.125 6.825 41.7375 9.3375 41.7C11.7 41.6625 13.3875 43.875 13.95 44.775C16.65 49.3125 20.9625 48.0375 22.6875 47.25C22.95 45.3 23.7375 43.9875 24.6 43.2375C17.925 42.4875 10.95 39.9 10.95 28.425C10.95 25.1625 12.1125 22.4625 14.025 20.3625C13.725 19.6125 12.675 16.5375 14.325 12.4125C14.325 12.4125 16.8375 11.625 22.575 15.4875C24.975 14.8125 27.525 14.475 30.075 14.475C32.625 14.475 35.175 14.8125 37.575 15.4875C43.3125 11.5875 45.825 12.4125 45.825 12.4125C47.475 16.5375 46.425 19.6125 46.125 20.3625C48.0375 22.4625 49.2 25.125 49.2 28.425C49.2 39.9375 42.1875 42.4875 35.5125 43.2375C36.6 44.175 37.5375 45.975 37.5375 48.7875C37.5375 52.8 37.5 56.025 37.5 57.0375C37.5 57.825 38.0625 58.7625 39.5625 58.4625C45.5179 56.4518 50.6929 52.6242 54.3592 47.5184C58.0254 42.4126 59.9982 36.2857 60 30C60 13.425 46.575 0 30 0Z" fill="white" fill-opacity="0.2"/>
<path d="M22.0382 52.043C18.5298 52.6001 16.2017 52.1482 14.6476 51.2767C13.0071 50.3568 12.3076 49.0133 11.9817 48.1003C11.8265 47.7067 11.3967 46.8617 10.8463 46.0247C10.5712 45.6064 10.2727 45.2005 9.97156 44.8604C9.66733 44.5168 9.38167 44.2649 9.13459 44.1259C8.84501 43.9704 8.52695 43.76 8.25073 43.5273C7.98436 43.303 7.70806 43.0175 7.5653 42.7042C7.49139 42.5419 7.43647 42.3352 7.47592 42.1105C7.51775 41.8723 7.65382 41.6808 7.8398 41.5443C8.17163 41.3006 8.68946 41.2096 9.33004 41.2001M22.0382 52.043L59.5 30C59.4982 36.1811 57.5582 42.206 53.953 47.2268C50.3543 52.2386 45.2771 55.998 39.434 57.9781C38.819 58.0944 38.4841 57.949 38.3032 57.7862C38.1035 57.6064 38 57.3238 38 57.0375C38 56.7007 38.0042 56.1176 38.0097 55.3391C38.0125 54.9524 38.0156 54.5176 38.0187 54.0408C38.0281 52.6058 38.0375 50.7953 38.0375 48.7875C38.0375 46.4579 37.417 44.7443 36.546 43.6113C39.6099 43.1811 42.7386 42.2986 45.1807 40.2503C47.9079 37.9628 49.7 34.2907 49.7 28.425C49.7 25.1142 48.5701 22.4074 46.6987 20.2551C47.0965 19.1151 47.8426 16.1102 46.2892 12.2268L46.2026 12.0102L45.981 11.9375L45.825 12.4125C45.981 11.9375 45.9805 11.9373 45.98 11.9371L45.9789 11.9368L45.9767 11.9361L45.9714 11.9344L45.958 11.9304C45.9478 11.9274 45.9351 11.9239 45.9199 11.9199C45.8893 11.9121 45.8487 11.9027 45.7977 11.8932C45.6958 11.8741 45.5529 11.8545 45.368 11.8452C44.9977 11.8265 44.4615 11.8492 43.7492 11.9981C42.3572 12.2891 40.2969 13.0613 37.4862 14.9442C35.1058 14.2975 32.5893 13.975 30.075 13.975C27.5603 13.975 25.0433 14.2977 22.6625 14.9446C19.8521 13.0794 17.7928 12.308 16.4024 12.0125C15.6911 11.8613 15.1558 11.8349 14.7865 11.8502C14.602 11.8579 14.4596 11.8759 14.3579 11.8937C14.3072 11.9026 14.2666 11.9114 14.2363 11.9188C14.2211 11.9225 14.2084 11.9259 14.1983 11.9287L14.185 11.9325L14.1798 11.9341L14.1775 11.9348L14.1764 11.9351C14.1759 11.9352 14.1755 11.9354 14.325 12.4125L14.1755 11.9354L13.9489 12.0064L13.8608 12.2268C12.3074 16.1103 13.0535 19.1152 13.4513 20.2552C11.5794 22.4105 10.45 25.1512 10.45 28.425C10.45 34.2716 12.2324 37.9431 14.9495 40.2353C17.384 42.2892 20.5058 43.1799 23.5704 43.6115C22.9579 44.4113 22.4631 45.5045 22.2338 46.9027C21.3901 47.2555 20.0977 47.6372 18.7302 47.5115C17.2547 47.3758 15.646 46.6475 14.3797 44.5193L14.3798 44.5193L14.374 44.51C14.0756 44.0325 13.4807 43.2084 12.6402 42.503C11.8007 41.7984 10.675 41.1789 9.33004 41.2001M22.0382 52.043C22.0405 53.0886 22.0484 54.0862 22.0563 54.9235C22.0592 55.2291 22.062 55.5129 22.0646 55.7695C22.0705 56.3503 22.075 56.7926 22.075 57.0375C22.075 57.3215 21.9731 57.5938 21.7747 57.7695C21.5917 57.9315 21.2523 58.0766 20.6341 57.976C8.92576 54.0562 0.5 43.0395 0.5 30C0.5 13.7011 13.7011 0.5 30 0.5C46.2988 0.5 59.4999 13.7011 59.5 29.9999L22.0382 52.043ZM9.33004 41.2001L9.3375 41.7M9.33004 41.2001C9.32988 41.2001 9.32972 41.2001 9.32956 41.2001L9.3375 41.7M9.3375 41.7C11.7 41.6625 13.3875 43.875 13.95 44.775L9.375 43.6875C8.325 43.125 6.825 41.7375 9.3375 41.7Z" stroke="white" stroke-opacity="0.2"/>
</svg>
