<svg width="60" height="60" viewBox="0 0 60 60" fill="none" xmlns="http://www.w3.org/2000/svg">
<path d="M30 0C13.4312 0 0 13.4312 0 30C0 46.5687 13.4312 60 30 60C46.5687 60 60 46.5687 60 30C60 13.4312 46.5687 0 30 0ZM22.6562 42.4344H16.5812V22.8844H22.6562V42.4344ZM19.5812 20.4844C17.6625 20.4844 16.4219 19.125 16.4219 17.4437C16.4219 15.7281 17.7 14.4094 19.6594 14.4094C21.6187 14.4094 22.8187 15.7281 22.8562 17.4437C22.8562 19.125 21.6187 20.4844 19.5812 20.4844ZM44.8437 42.4344H38.7687V31.6C38.7687 29.0781 37.8875 27.3656 35.6906 27.3656C34.0125 27.3656 33.0156 28.525 32.575 29.6406C32.4125 30.0375 32.3719 30.6 32.3719 31.1594V42.4312H26.2937V29.1187C26.2937 26.6781 26.2156 24.6375 26.1344 22.8812H31.4125L31.6906 25.5969H31.8125C32.6125 24.3219 34.5719 22.4406 37.85 22.4406C41.8469 22.4406 44.8437 25.1187 44.8437 30.875V42.4344Z" fill="white" fill-opacity="0.2"/>
<path d="M22.6562 42.9344H23.1562V42.4344V22.8844V22.3844H22.6562H16.5812H16.0812V22.8844V42.4344V42.9344H16.5812H22.6562ZM23.3562 17.4437H23.3564L23.3561 17.4328C23.3349 16.46 22.982 15.5731 22.3303 14.9279C21.6767 14.2807 20.7554 13.9094 19.6594 13.9094C18.5649 13.9094 17.6265 14.2796 16.9588 14.9232C16.2911 15.567 15.9219 16.4581 15.9219 17.4437C15.9219 19.4011 17.3864 20.9844 19.5812 20.9844C20.7144 20.9844 21.6636 20.6041 22.3319 19.9525C22.9991 19.3019 23.3562 18.4096 23.3562 17.4437ZM44.8437 42.9344H45.3437V42.4344V30.875C45.3437 27.9139 44.5724 25.672 43.2175 24.1649C41.8575 22.6522 39.9638 21.9406 37.85 21.9406C35.0697 21.9406 33.1702 23.2142 32.0738 24.431L31.9099 22.8303L31.8639 22.3812H31.4125H26.1344H25.6107L25.6349 22.9044C25.716 24.6571 25.7937 26.6891 25.7937 29.1187V42.4312V42.9312H26.2937H32.3719H32.8719V42.4312V31.1594C32.8719 30.6018 32.9159 30.1277 33.0377 29.8301L33.0378 29.8301L33.04 29.8243C33.4365 28.8205 34.2913 27.8656 35.6906 27.8656C36.6368 27.8656 37.2432 28.2222 37.6373 28.8142C38.0536 29.4394 38.2687 30.3829 38.2687 31.6V42.4344V42.9344H38.7687H44.8437ZM0.5 30C0.5 13.7074 13.7074 0.5 30 0.5C46.2926 0.5 59.5 13.7074 59.5 30C59.5 46.2926 46.2926 59.5 30 59.5C13.7074 59.5 0.5 46.2926 0.5 30Z" stroke="white" stroke-opacity="0.2"/>
</svg>
